<svg xmlns="http://www.w3.org/2000/svg" width="920" height="190" viewBox="0 0 920 190" role="img" aria-labelledby="title desc">
<title id="title">FairGen conceptual workflow preview</title>
<desc id="desc">Imbalanced clinical data is resampled by attribute and disease, guided through fairness-aware diffusion, and used for fairer downstream diagnosis.</desc>
<rect x="0.5" y="0.5" width="919" height="189" rx="16" fill="#f8fafc" stroke="#dbe4ed"/>
<text x="22" y="31" fill="#6554a4" font-family="Arial, Helvetica, sans-serif" font-size="13" font-weight="700" letter-spacing="1.4">CONCEPTUAL WORKFLOW</text>
<rect x="18" y="47" width="197" height="125" rx="12" fill="#fff" stroke="#d4dee8"/>
<rect x="18" y="47" width="197" height="7" rx="3.5" fill="#6554a4"/>
<circle cx="41" cy="76" r="13" fill="#eeeafd"/>
<text x="41" y="81" text-anchor="middle" fill="#6554a4" font-family="Arial, Helvetica, sans-serif" font-size="13" font-weight="700">1</text>
<text x="35" y="107" fill="#193247" font-family="Arial, Helvetica, sans-serif" font-size="17" font-weight="700">Clinical data</text>
<text x="35" y="130" fill="#455d70" font-family="Arial, Helvetica, sans-serif" font-size="14">Imbalanced cohorts</text>
<text x="35" y="149" fill="#455d70" font-family="Arial, Helvetica, sans-serif" font-size="14">and rare phenotypes</text>
<path d="M 221 109 H 237" fill="none" stroke="#6554a4" stroke-width="2.5" stroke-linecap="round"/>
<path d="m 233 104 5 5 -5 5" fill="none" stroke="#6554a4" stroke-width="2.5" stroke-linecap="round" stroke-linejoin="round"/>
<rect x="242" y="47" width="197" height="125" rx="12" fill="#fff" stroke="#d4dee8"/>
<rect x="242" y="47" width="197" height="7" rx="3.5" fill="#6554a4"/>
<circle cx="265" cy="76" r="13" fill="#eeeafd"/>
<text x="265" y="81" text-anchor="middle" fill="#6554a4" font-family="Arial, Helvetica, sans-serif" font-size="13" font-weight="700">2</text>
<text x="259" y="107" fill="#193247" font-family="Arial, Helvetica, sans-serif" font-size="17" font-weight="700">Resample pairs</text>
<text x="259" y="130" fill="#455d70" font-family="Arial, Helvetica, sans-serif" font-size="14">Attribute �� disease</text>
<text x="259" y="149" fill="#455d70" font-family="Arial, Helvetica, sans-serif" font-size="14">coverage</text>
<path d="M 445 109 H 461" fill="none" stroke="#6554a4" stroke-width="2.5" stroke-linecap="round"/>
<path d="m 457 104 5 5 -5 5" fill="none" stroke="#6554a4" stroke-width="2.5" stroke-linecap="round" stroke-linejoin="round"/>
<rect x="466" y="47" width="197" height="125" rx="12" fill="#fff" stroke="#d4dee8"/>
<rect x="466" y="47" width="197" height="7" rx="3.5" fill="#6554a4"/>
<circle cx="489" cy="76" r="13" fill="#eeeafd"/>
<text x="489" y="81" text-anchor="middle" fill="#6554a4" font-family="Arial, Helvetica, sans-serif" font-size="13" font-weight="700">3</text>
<text x="483" y="107" fill="#193247" font-family="Arial, Helvetica, sans-serif" font-size="17" font-weight="700">FairGen diffusion</text>
<text x="483" y="130" fill="#455d70" font-family="Arial, Helvetica, sans-serif" font-size="14">Diversity + clinician</text>
<text x="483" y="149" fill="#455d70" font-family="Arial, Helvetica, sans-serif" font-size="14">preference guidance</text>
<path d="M 669 109 H 685" fill="none" stroke="#6554a4" stroke-width="2.5" stroke-linecap="round"/>
<path d="m 681 104 5 5 -5 5" fill="none" stroke="#6554a4" stroke-width="2.5" stroke-linecap="round" stroke-linejoin="round"/>
<rect x="690" y="47" width="197" height="125" rx="12" fill="#fff" stroke="#d4dee8"/>
<rect x="690" y="47" width="197" height="7" rx="3.5" fill="#6554a4"/>
<circle cx="713" cy="76" r="13" fill="#eeeafd"/>
<text x="713" y="81" text-anchor="middle" fill="#6554a4" font-family="Arial, Helvetica, sans-serif" font-size="13" font-weight="700">4</text>
<text x="707" y="107" fill="#193247" font-family="Arial, Helvetica, sans-serif" font-size="17" font-weight="700">Synthetic images</text>
<text x="707" y="130" fill="#455d70" font-family="Arial, Helvetica, sans-serif" font-size="14">Balanced training</text>
<text x="707" y="149" fill="#455d70" font-family="Arial, Helvetica, sans-serif" font-size="14">for diagnosis</text>
</svg>
